HIERARCHY
ROOT Joint1
{
	OFFSET 0.000000 0.000000 0.000000
	CHANNELS 6 Xposition Yposition Zposition Xrotation Yrotation Zrotation
	JOINT Joint2
	{
		OFFSET -0.000000 0.000000 1.456275
		CHANNELS 6 Xposition Yposition Zposition Xrotation Yrotation Zrotation
		JOINT Joint3
		{
			OFFSET -0.000000 0.000002 1.471446
			CHANNELS 6 Xposition Yposition Zposition Xrotation Yrotation Zrotation
			JOINT Joint4
			{
				OFFSET 0.625745 0.000000 0.917755
				CHANNELS 6 Xposition Yposition Zposition Xrotation Yrotation Zrotation
				JOINT Joint5
				{
					OFFSET -0.629534 0.000001 0.940221
					CHANNELS 6 Xposition Yposition Zposition Xrotation Yrotation Zrotation
					JOINT Joint6
					{
						OFFSET -0.000001 0.113772 1.960660
						CHANNELS 6 Xposition Yposition Zposition Xrotation Yrotation Zrotation
						JOINT Joint7
						{
							OFFSET -0.669733 -0.113771 0.388340
							CHANNELS 6 Xposition Yposition Zposition Xrotation Yrotation Zrotation
							End Site
							{
								OFFSET 0.005509 0.005509 0.438980
							}
						}
					}
				}
			}
		}
	}
}
MOTION
Frames: 29
Frame Time: 0.041667
0.000000 0.000000 0.000000 -0.000000 1.019410 -0.029750 -0.000000 0.000000 1.456275 0.000000 -44.982000 0.000000 -0.000000 0.000002 1.471446 0.000000 -1.133461 -0.019286 0.625745 0.000000 0.917755 0.000004 135.019876 -0.000001 -0.629534 0.000001 0.940221 0.000000 1.709736 -0.025970 -0.000001 0.113772 1.960660 -88.316573 89.984764 -0.008216 -0.669733 -0.113771 0.388340 -0.704780 3.566197 134.942080 
0.000000 0.000000 0.000000 -0.000000 1.019410 -0.098322 -0.000000 -0.000000 1.456275 0.000000 -44.975208 0.000000 -0.000000 0.000002 1.471446 -0.000000 -1.133461 0.031765 0.625745 0.000000 0.917755 0.000004 135.005765 -0.000001 -0.629533 0.000001 0.940221 0.000000 1.709736 -0.047910 -0.000001 0.113772 1.960660 -88.252007 90.003602 0.035688 -0.669733 -0.113771 0.388340 -0.703484 3.566195 134.869161 
0.000000 0.000000 0.000000 -0.000000 1.019410 -0.214108 -0.000000 -0.000000 1.456275 -0.000000 -44.963736 -0.000000 -0.000001 0.000002 1.471445 -0.000000 -1.133460 0.117966 0.625745 0.000000 0.917755 0.000004 134.981969 -0.000001 -0.629534 0.000001 0.940221 0.000000 1.709736 -0.084957 -0.000000 0.113772 1.960660 -88.298773 90.035397 0.003714 -0.669733 -0.113771 0.388340 -0.701296 3.566188 134.745986 
0.000000 0.000000 0.000000 -0.000000 1.019410 -0.378337 -0.000000 0.000000 1.456275 0.000000 -44.947460 -0.000000 -0.000000 0.000002 1.471445 -0.000000 -1.133455 0.240232 0.625745 0.000000 0.917755 0.000004 134.948187 -0.000001 -0.629533 0.000001 0.940221 0.000000 1.709736 -0.137505 -0.000001 0.113772 1.960661 -88.301703 90.080503 0.001502 -0.669733 -0.113771 0.388340 -0.698194 3.566169 134.571297 
0.000000 0.000000 0.000000 -0.000000 1.019410 -0.592237 -0.000000 0.000000 1.456275 -0.000000 -44.926269 0.000000 -0.000000 0.000002 1.471446 -0.000000 -1.133456 0.399477 0.625744 0.000000 0.917755 0.000003 134.904200 -0.000001 -0.629535 0.000001 0.940221 0.000000 1.709737 -0.205944 -0.000001 0.113772 1.960660 -88.302475 90.139243 0.000977 -0.669733 -0.113771 0.388340 -0.694152 3.566131 134.343756 
0.000000 0.000000 0.000000 -0.000000 1.019410 -0.857034 -0.000000 0.000000 1.456275 -0.000000 -44.900021 0.000000 -0.000001 0.000002 1.471445 0.000000 -1.133461 0.596615 0.625745 0.000000 0.917755 0.000004 134.849736 -0.000001 -0.629533 0.000001 0.940221 0.000000 1.709736 -0.290670 -0.000000 0.113772 1.960660 -88.302981 90.211971 0.000612 -0.669733 -0.113771 0.388340 -0.689150 3.566062 134.062092 
0.000000 0.000000 0.000000 -0.000000 1.019410 -1.173958 -0.000000 -0.000000 1.456275 -0.000000 -44.868619 0.000000 -0.000000 0.000002 1.471446 0.000000 -1.133461 0.832559 0.625744 0.000000 0.917755 0.000004 134.784549 -0.000001 -0.629534 0.000001 0.940221 0.000000 1.709737 -0.392074 -0.000000 0.113772 1.960660 -88.303261 90.299015 0.000422 -0.669733 -0.113771 0.388340 -0.683163 3.565946 133.724982 
0.000000 0.000000 0.000000 -0.000000 1.019410 -1.544235 -0.000000 -0.000000 1.456275 0.000000 -44.831927 0.000000 -0.000000 0.000002 1.471446 0.000000 -1.133460 1.108225 0.625745 0.000000 0.917755 0.000004 134.708406 -0.000001 -0.629533 0.000001 0.940221 0.000000 1.709736 -0.510548 -0.000001 0.113772 1.960660 -88.303411 90.400702 0.000341 -0.669733 -0.113771 0.388340 -0.676169 3.565767 133.331098 
0.000000 0.000000 0.000000 -0.000000 1.019410 -1.969093 -0.000000 0.000000 1.456275 -0.000000 -44.789826 -0.000000 -0.000000 0.000002 1.471446 -0.000000 -1.133457 1.424525 0.625744 0.000000 0.917755 0.000004 134.621020 -0.000001 -0.629534 0.000001 0.940221 0.000000 1.709736 -0.646487 -0.000001 0.113772 1.960660 -88.303527 90.517383 0.000232 -0.669733 -0.113771 0.388341 -0.668146 3.565502 132.879172 
0.000000 0.000000 0.000000 -0.000000 1.019410 -2.449760 -0.000000 0.000000 1.456275 -0.000000 -44.742189 0.000000 -0.000000 0.000002 1.471446 -0.000000 -1.133459 1.782375 0.625744 0.000000 0.917755 0.000003 134.522174 -0.000001 -0.629534 0.000001 0.940221 0.000000 1.709737 -0.800283 0.000000 0.113772 1.960661 -88.303588 90.649396 0.000187 -0.669733 -0.113771 0.388340 -0.659072 3.565126 132.367864 
0.000000 0.000000 0.000000 -0.000000 1.019410 -2.987465 -0.000000 0.000000 1.456275 -0.000000 -44.688907 -0.000000 -0.000000 0.000002 1.471446 -0.000000 -1.133459 2.182687 0.625744 0.000000 0.917755 0.000004 134.411593 -0.000001 -0.629534 0.000001 0.940220 0.000000 1.709737 -0.972328 -0.000001 0.113772 1.960660 -88.303643 90.797072 0.000164 -0.669733 -0.113771 0.388340 -0.648926 3.564610 131.795918 
0.000000 0.000000 0.000000 -0.000000 1.019410 -3.583434 -0.000000 0.000000 1.456275 -0.000000 -44.629856 -0.000000 -0.000000 0.000002 1.471446 -0.000000 -1.133460 2.626378 0.625744 0.000000 0.917755 0.000004 134.289032 -0.000001 -0.629534 0.000001 0.940221 0.000000 1.709736 -1.163016 -0.000001 0.113772 1.960660 -88.303684 90.960751 0.000122 -0.669733 -0.113771 0.388340 -0.637687 3.563920 131.161967 
0.000000 0.000000 0.000000 -0.000000 1.019410 -4.238894 -0.000000 0.000000 1.456275 0.000000 -44.564901 0.000000 -0.000000 0.000002 1.471446 0.000000 -1.133463 3.114358 0.625745 0.000000 0.917755 0.000004 134.154232 -0.000001 -0.629534 0.000001 0.940221 -0.000000 1.709736 -1.372739 -0.000001 0.113772 1.960661 -88.303718 91.140760 0.000104 -0.669733 -0.113771 0.388339 -0.625336 3.563018 130.464741 
0.000000 0.000000 0.000000 -0.000000 1.019410 -4.955077 -0.000000 0.000000 1.456275 -0.000000 -44.493935 0.000000 -0.000000 0.000002 1.471446 0.000000 -1.133461 3.647545 0.625744 0.000000 0.917755 0.000004 134.006932 -0.000001 -0.629534 0.000001 0.940221 -0.000000 1.709736 -1.601891 -0.000001 0.113772 1.960660 -88.303752 91.337449 0.000092 -0.669733 -0.113771 0.388340 -0.611854 3.561861 129.702915 
0.000000 0.000000 0.000000 -0.000000 1.019410 -5.729998 -0.000000 -0.000000 1.456275 -0.000000 -44.417137 0.000000 -0.000000 0.000002 1.471446 0.000000 -1.133461 4.224462 0.625744 0.000000 0.917755 0.000003 133.847570 -0.000001 -0.629534 0.000001 0.940221 -0.000000 1.709736 -1.849837 0.000000 0.113772 1.960660 -88.303766 91.550271 0.000075 -0.669733 -0.113771 0.388341 -0.597286 3.560407 128.878621 
0.000000 0.000000 0.000000 -0.000000 1.019410 -6.548843 -0.000000 -0.000000 1.456275 -0.000000 -44.335998 0.000000 -0.000000 0.000002 1.471446 0.000000 -1.133459 4.834080 0.625744 0.000000 0.917755 0.000004 133.679165 -0.000001 -0.629534 0.000001 0.940221 0.000000 1.709736 -2.111837 0.000000 0.113772 1.960660 -88.303780 91.775162 0.000072 -0.669733 -0.113771 0.388340 -0.581916 3.558644 128.007608 
0.000000 0.000000 0.000000 -0.000000 1.019410 -7.393589 -0.000000 -0.000000 1.456275 0.000001 -44.252294 0.000000 -0.000000 0.000002 1.471446 -0.000000 -1.133459 5.462978 0.625744 0.000000 0.917754 0.000004 133.505418 -0.000001 -0.629534 0.000001 0.940221 0.000000 1.709737 -2.382123 -0.000001 0.113772 1.960661 -88.303786 92.007156 0.000059 -0.669733 -0.113771 0.388340 -0.566090 3.556580 127.109042 
0.000000 0.000000 0.000000 -0.000000 1.019410 -8.246211 -0.000000 0.000000 1.456275 0.000001 -44.167801 0.000001 -0.000001 0.000002 1.471445 -0.000000 -1.133459 6.097744 0.625744 0.000000 0.917755 0.000003 133.330087 -0.000001 -0.629533 0.000001 0.940221 -0.000000 1.709737 -2.654931 -0.000001 0.113772 1.960660 -88.303800 92.241322 0.000054 -0.669733 -0.113771 0.388339 -0.550151 3.554247 126.202088 
0.000000 0.000000 0.000000 -0.000000 1.019410 -9.088684 -0.000000 -0.000000 1.456275 -0.000000 -44.084319 -0.000000 -0.000001 0.000002 1.471446 -0.000000 -1.133463 6.724953 0.625744 0.000000 0.917755 0.000003 133.156819 -0.000001 -0.629533 0.000001 0.940221 -0.000001 1.709736 -2.924492 -0.000001 0.113772 1.960661 -88.303807 92.472695 0.000053 -0.669733 -0.113771 0.388340 -0.534440 3.551694 125.305927 
0.000000 0.000000 0.000000 -0.000000 1.019410 -9.902989 -0.000000 0.000000 1.456275 0.000002 -44.003627 0.000000 -0.000000 0.000002 1.471446 -0.000000 -1.133458 7.331190 0.625745 0.000000 0.917755 0.000004 132.989343 -0.000002 -0.629534 0.000001 0.940221 0.000000 1.709737 -3.185040 -0.000001 0.113772 1.960661 -88.303814 92.696329 0.000050 -0.669733 -0.113771 0.388340 -0.519295 3.548992 124.439763 
0.000000 0.000000 0.000000 -0.000000 1.019410 -10.686537 -0.000000 0.000000 1.456275 0.000001 -43.925974 0.000000 -0.000001 0.000002 1.471446 -0.000001 -1.133458 7.914529 0.625744 0.000000 0.917755 0.000004 132.828219 -0.000001 -0.629534 0.000001 0.940221 0.000000 1.709736 -3.435746 -0.000001 0.113772 1.960661 -88.303814 92.911521 0.000044 -0.669733 -0.113771 0.388339 -0.504762 3.546182 123.606330 
0.000000 0.000000 0.000000 -0.000000 1.019410 -11.498495 -0.000000 -0.000000 1.456275 -0.000001 -43.845518 -0.000000 -0.000000 0.000002 1.471446 0.000000 -1.133458 8.519023 0.625745 0.000000 0.917755 0.000003 132.661193 -0.000000 -0.629533 0.000001 0.940221 0.000001 1.709736 -3.695540 -0.000002 0.113772 1.960660 -88.303821 93.134520 0.000038 -0.669733 -0.113771 0.388340 -0.489747 3.543042 122.742638 
0.000000 0.000000 0.000000 -0.000000 1.019410 -12.413472 -0.000000 -0.000000 1.456275 -0.000001 -43.754844 -0.000001 -0.000000 0.000002 1.471446 0.000000 -1.133461 9.200205 0.625744 0.000000 0.917755 0.000004 132.473035 -0.000001 -0.629534 0.000001 0.940221 0.000000 1.709736 -3.988300 -0.000001 0.113772 1.960661 -88.303827 93.385809 0.000035 -0.669733 -0.113771 0.388340 -0.472885 3.539237 121.769391 
0.000000 0.000000 0.000000 -0.000000 1.019410 -13.506067 -0.000000 0.000000 1.456275 0.000001 -43.646575 0.000000 -0.000000 0.000002 1.471446 0.000001 -1.133458 10.013630 0.625744 0.000000 0.917755 0.000005 132.248308 -0.000000 -0.629534 0.000001 0.940221 0.000001 1.709737 -4.337890 -0.000001 0.113772 1.960661 -88.303827 93.685873 0.000032 -0.669733 -0.113771 0.388340 -0.452840 3.534319 120.607207 
0.000000 0.000000 0.000000 -0.000000 1.019410 -14.850901 -0.000000 0.000000 1.456275 0.000001 -43.513312 -0.000002 -0.000000 0.000002 1.471446 0.000001 -1.133461 11.014834 0.625744 0.000000 0.917755 0.000004 131.971740 -0.000000 -0.629533 0.000001 0.940221 -0.000001 1.709736 -4.768188 -0.000001 0.113772 1.960660 -88.303841 94.055216 0.000028 -0.669733 -0.113771 0.388339 -0.428310 3.527709 119.176747 
0.000000 0.000000 0.000000 -0.000000 1.019410 -16.472712 -0.000000 0.000000 1.456275 -0.000001 -43.352597 0.000002 -0.000000 0.000002 1.471445 0.000000 -1.133461 12.222249 0.625745 0.000000 0.917755 0.000005 131.638195 -0.000001 -0.629533 0.000001 0.940221 0.000001 1.709737 -5.287106 -0.000001 0.113772 1.960661 -88.303841 94.500626 0.000026 -0.669733 -0.113771 0.388340 -0.398960 3.518929 117.451687 
0.000000 0.000000 0.000000 -0.000000 1.019410 -18.196852 -0.000000 0.000000 1.456275 -0.000002 -43.181747 0.000000 -0.000000 0.000002 1.471446 0.000001 -1.133458 13.505844 0.625745 0.000000 0.917755 0.000004 131.283612 -0.000002 -0.629534 0.000001 0.940221 0.000001 1.709736 -5.838767 -0.000001 0.113772 1.960661 -88.303848 94.974142 0.000023 -0.669733 -0.113771 0.388341 -0.368064 3.508631 115.617809 
0.000000 0.000000 0.000000 -0.000000 1.019410 -19.798811 -0.000000 0.000000 1.456275 0.000001 -43.023003 0.000000 -0.000000 0.000002 1.471446 -0.000000 -1.133455 14.698478 0.625745 0.000000 0.917755 0.000003 130.954151 -0.000001 -0.629534 0.000001 0.940221 0.000001 1.709736 -6.351334 -0.000000 0.113772 1.960660 -88.303848 95.414102 0.000020 -0.669733 -0.113771 0.388340 -0.339667 3.498184 113.913915 
0.000000 0.000000 0.000000 -0.000000 1.019410 -21.120519 -0.000000 -0.000000 1.456275 -0.000000 -42.892027 0.000000 -0.000000 0.000002 1.471446 0.000001 -1.133459 15.682471 0.625744 0.000000 0.917755 0.000004 130.682324 -0.000001 -0.629534 0.000001 0.940221 -0.000000 1.709736 -6.774233 -0.000001 0.113772 1.960660 -88.303848 95.777093 0.000020 -0.669733 -0.113771 0.388340 -0.316481 3.488932 112.508126 
